2.8Hzhigh3min_grf.mot
version=1
nRows=27
nColumns 19
inDegrees=yes
endheader
time	1_ground_force_vx	1_ground_force_vy	1_ground_force_vz	1_ground_force_px	1_ground_force_py	1_ground_force_pz	1_ground_torque_x	1_ground_torque_y	1_ground_torque_z	2_ground_force_vx	2_ground_force_vy	2_ground_force_vz	2_ground_force_px	2_ground_force_py	2_ground_force_pz	2_ground_torque_x	2_ground_torque_y	2_ground_torque_z
            3.751500	          -21.358221	          247.573011	          -15.760906	           -0.209649	            0.006422	           -0.450844	            0.030334	           -0.351616	            0.022384	           -8.451644	          172.737874	           -9.188324	           -0.209929	            0.005627	           -0.669909	           -0.023311	            0.476436	           -0.025343
            3.752000	          -18.241007	          253.160277	          -15.377834	           -0.209887	            0.006425	           -0.451431	            0.029847	           -0.414232	            0.025162	          -14.435791	          182.289258	           -8.353849	           -0.208617	            0.005634	           -0.670690	           -0.044144	            0.557435	           -0.025546
            3.752500	          -15.762021	          260.363125	          -13.427111	           -0.210998	            0.006421	           -0.450578	            0.048750	           -0.805274	            0.041529	          -20.037892	          189.816859	           -7.667545	           -0.207296	            0.005637	           -0.670208	           -0.055439	            0.525166	           -0.021214
            3.753000	          -14.244482	          266.302188	          -11.066706	           -0.211149	            0.006426	           -0.451641	            0.061241	           -1.144909	            0.047579	          -24.755098	          198.820358	           -6.835579	           -0.206481	            0.005640	           -0.670125	           -0.047363	            0.380392	           -0.013078
            3.753500	          -12.454196	          272.425471	           -9.623329	           -0.210801	            0.006429	           -0.452469	            0.053633	           -1.173185	            0.041442	          -28.904892	          206.353537	           -6.243749	           -0.205267	            0.005646	           -0.670746	           -0.029614	            0.211418	           -0.006397
            3.754000	          -10.207807	          279.453877	           -9.048488	           -0.211043	            0.006424	           -0.451191	            0.032051	           -0.877442	            0.028411	          -32.778279	          215.177112	           -5.741295	           -0.205252	            0.005649	           -0.671457	           -0.019453	            0.127701	           -0.003407
            3.754500	           -7.689398	          285.045972	           -9.810334	           -0.211006	            0.006426	           -0.451803	            0.015181	           -0.562758	            0.019368	          -37.073215	          223.998327	           -5.004021	           -0.204293	            0.005655	           -0.672209	           -0.031612	            0.191004	           -0.004267
            3.755000	           -4.437666	          291.539508	          -10.570136	           -0.210622	            0.006428	           -0.452208	            0.005656	           -0.371584	            0.013472	          -41.974210	          232.078072	           -3.518267	           -0.203706	            0.005656	           -0.671784	           -0.091111	            0.503758	           -0.007637
            3.755500	           -1.643747	          298.392306	          -11.052119	           -0.210900	            0.006427	           -0.452042	            0.003026	           -0.549298	            0.020345	          -46.880480	          241.630669	           -1.933401	           -0.203214	            0.005662	           -0.672943	           -0.098350	            0.506916	           -0.004056
            3.756000	            0.878628	          304.698326	          -10.160061	           -0.211552	            0.006427	           -0.451987	           -0.002739	           -0.950003	            0.031678	          -51.640111	          249.525610	           -0.119867	           -0.202413	            0.005665	           -0.673138	           -0.114288	            0.552239	           -0.000265
            3.756500	            3.312391	          310.999081	           -8.029665	           -0.211831	            0.006428	           -0.452136	           -0.010994	           -1.032200	            0.026650	          -55.322369	          257.425780	            1.317784	           -0.202317	            0.005667	           -0.673540	           -0.110962	            0.516327	            0.002643
            3.757000	            5.103424	          318.022089	           -6.215576	           -0.211156	            0.006429	           -0.452512	           -0.014640	           -0.912312	            0.017831	          -56.617893	          266.070836	            2.850903	           -0.202094	            0.005670	           -0.674174	           -0.076695	            0.360419	            0.003862
            3.757500	            7.212677	          324.148777	           -5.552547	           -0.211325	            0.006429	           -0.452447	           -0.010907	           -0.490155	            0.008396	          -57.772349	          274.533430	            4.054809	           -0.202552	            0.005670	           -0.674514	           -0.096762	            0.459813	            0.006791
            3.758000	            9.501870	          329.740829	           -6.313824	           -0.211669	            0.006431	           -0.452995	           -0.003758	           -0.130397	            0.002497	          -57.940503	          282.264626	            4.786387	           -0.202506	            0.005669	           -0.674410	           -0.114202	            0.556349	            0.009434
            3.758500	           11.833911	          336.779672	           -8.169574	           -0.212005	            0.006429	           -0.452512	           -0.007397	           -0.210524	            0.005107	          -58.105820	          289.257753	            5.937689	           -0.203172	            0.005668	           -0.674550	           -0.130202	            0.648159	            0.013305
            3.759000	           14.303529	          344.178937	           -9.978262	           -0.211638	            0.006431	           -0.452893	           -0.017304	           -0.416374	            0.012071	          -58.319955	          296.802966	            7.137911	           -0.203223	            0.005669	           -0.675072	           -0.135842	            0.691328	            0.016626
            3.759500	           15.539781	          349.948464	          -10.140023	           -0.211561	            0.006432	           -0.453246	           -0.034685	           -0.781089	            0.022633	          -57.875467	          303.613421	            8.476009	           -0.203387	            0.005670	           -0.675401	           -0.131910	            0.691998	            0.019319
            3.760000	           17.052437	          357.697988	           -9.606126	           -0.212014	            0.006430	           -0.452788	           -0.039737	           -0.833536	            0.022385	          -56.726945	          310.058528	            9.718639	           -0.203993	            0.005668	           -0.675458	           -0.125263	            0.684663	            0.021460
            3.760500	           18.063099	          364.182045	           -8.250980	           -0.211788	            0.006431	           -0.452897	           -0.029586	           -0.596502	            0.013514	          -54.267730	          316.695966	            9.975878	           -0.204894	            0.005666	           -0.675969	           -0.140673	            0.820941	            0.025860
            3.761000	           18.567715	          372.290983	           -7.483754	           -0.211726	            0.006431	           -0.452850	           -0.014829	           -0.297328	            0.005977	          -50.538019	          321.863004	           10.743531	           -0.205230	            0.005665	           -0.676004	           -0.146882	            0.935455	            0.031225
            3.761500	           19.803555	          379.683067	           -7.684414	           -0.212134	            0.006429	           -0.452533	            0.005065	            0.097106	           -0.001965	          -46.014242	          327.588520	           10.621183	           -0.206103	            0.005662	           -0.676080	           -0.136130	            0.969147	            0.031422
            3.762000	           20.530975	          387.983294	           -9.484915	           -0.212377	            0.006429	           -0.452408	           -0.003944	           -0.074525	            0.001822	          -41.677597	          333.311123	           11.108979	           -0.207002	            0.005661	           -0.676577	           -0.115975	            0.927494	            0.030913
            3.762500	           21.441135	          395.383635	          -11.610727	           -0.211983	            0.006431	           -0.452881	           -0.017492	           -0.322554	            0.009472	          -37.994032	          338.293517	           11.969852	           -0.207431	            0.005661	           -0.676950	           -0.099720	            0.887896	            0.031416
            3.763000	           21.711572	          403.861452	          -12.813190	           -0.212108	            0.006429	           -0.452480	           -0.033121	           -0.616092	            0.019547	          -35.387348	          343.087819	           12.830525	           -0.207956	            0.005659	           -0.676897	           -0.101587	            0.984911	            0.036833
            3.763500	           21.021930	          411.073126	          -13.055700	           -0.212153	            0.006430	           -0.452709	           -0.037050	           -0.724486	            0.023010	          -32.545104	          347.514852	           13.642857	           -0.208485	            0.005657	           -0.676859	           -0.090543	            0.966812	            0.037955
            3.764000	           20.197651	          418.640193	          -12.104070	           -0.212060	            0.006430	           -0.452773	           -0.022250	           -0.461174	            0.013334	          -29.613275	          353.048133	           14.177523	           -0.209145	            0.005655	           -0.677091	           -0.095946	            1.143862	            0.045935
            3.764500	           19.051541	          426.929636	          -11.469542	           -0.211909	            0.006432	           -0.453150	           -0.008022	           -0.179760	            0.004829	          -25.931343	          358.401258	           14.335788	           -0.210022	            0.005653	           -0.677305	           -0.088415	            1.221992	            0.048879
